<?xml version="1.0" encoding="UTF-8"?>
<svg width="32" height="32" viewBox="0 0 32 32" xmlns="http://www.w3.org/2000/svg">
  <!-- Background circle in the primary teal color -->
  <circle cx="16" cy="16" r="15" fill="#70b7b1" />
  
  <!-- Inner circle in warm beige -->
  <circle cx="16" cy="16" r="10" fill="#f5e1ca" />
  
  <!-- Stylized 'tp' (Toki Pona) in a simplified sitelen pona style -->
  <path d="M16 8.5c-4 0-7 3-7 7s3 7 7 7 7-3 7-7-3-7-7-7zm0 2c2.8 0 5 2.2 5 5s-2.2 5-5 5-5-2.2-5-5 2.2-5 5-5z" fill="#333333" />
  
  <!-- Simplified symbol inspired by 'toki' (speech/language) sitelen pona -->
  <path d="M19 13.5c0 1.1-1.3 2-3 2s-3-.9-3-2 1.3-2 3-2 3 .9 3 2z" fill="#de6e4b" />
  
  <!-- Speech bubble element to represent language/communication -->
  <path d="M22 17l-4-1.5v3l4-1.5z" fill="#333333" />
</svg>